<svg width="54" height="43" viewBox="0 0 54 43" fill="none" xmlns="http://www.w3.org/2000/svg">
<path fill-rule="evenodd" clip-rule="evenodd" d="M40.1885 37.2667C38.3398 37.2667 36.8394 38.5509 36.8394 40.1333C36.8394 41.7157 38.3398 43 40.1885 43C42.0371 43 43.5375 41.7157 43.5375 40.1333C43.5375 38.5509 42.0371 37.2667 40.1885 37.2667ZM23.4433 37.2667C21.5946 37.2667 20.0942 38.5509 20.0942 40.1333C20.0942 41.7157 21.5946 43 23.4433 43C25.2919 43 26.7923 41.7157 26.7923 40.1333C26.7923 38.5509 25.2919 37.2667 23.4433 37.2667ZM45.212 28.6667C45.212 30.2491 43.7116 31.5333 41.863 31.5333H23.4433C21.5946 31.5333 20.0942 30.2491 20.0942 28.6667L17.3028 14.3333H49.3983L45.212 28.6667ZM16.695 11.4667L12.517 0H1.67452C0.74851 0 0 0.642133 0 1.43333C0 2.22597 0.74851 2.86667 1.67452 2.86667H10.0471L13.4145 11.4667H13.3962L16.7452 28.6667C16.7452 31.8329 19.7443 34.4 23.4433 34.4H41.863C45.562 34.4 48.5611 31.8329 48.5611 28.6667L53.5846 11.4667H16.695Z" fill="white"/>
</svg>
