<svg width="130" height="76" viewBox="0 0 130 76" fill="none" xmlns="http://www.w3.org/2000/svg">
<rect x="128.5" y="17.5" width="41" height="50" rx="10.5" transform="rotate(90 128.5 17.5)" fill="#73DA76" stroke="#056908" stroke-width="3"/>
<mask id="path-2-inside-1_1127_231" fill="white">
<path d="M130 38L130 48C130 54.6274 124.627 60 118 60L89 60C82.3726 60 77 54.6274 77 48L77 38L130 38Z"/>
</mask>
<path d="M130 38L130 48C130 54.6274 124.627 60 118 60L89 60C82.3726 60 77 54.6274 77 48L77 38L130 38Z" fill="#39B53D"/>
<path d="M133 38L133 48C133 56.2843 126.284 63 118 63L118 57C122.971 57 127 52.9706 127 48L127 38L133 38ZM89 63C80.7157 63 74 56.2843 74 48L74 38L80 38L80 48C80 52.9706 84.0294 57 89 57L89 63ZM89 57M77 38L130 38L77 38M133 48C133 56.2843 126.284 63 118 63L89 63C80.7157 63 74 56.2843 74 48L80 48C80 52.9706 84.0294 57 89 57L118 57C122.971 57 127 52.9706 127 48L133 48Z" fill="#056908" mask="url(#path-2-inside-1_1127_231)"/>
<rect x="51.5" y="17.5" width="41" height="50" rx="10.5" transform="rotate(90 51.5 17.5)" fill="#73DA76" stroke="#056908" stroke-width="3"/>
<mask id="path-5-inside-2_1127_231" fill="white">
<path d="M53 38L53 48C53 54.6274 47.6274 60 41 60L12 60C5.37259 60 2.59526e-06 54.6274 2.88495e-06 48L3.32207e-06 38L53 38Z"/>
</mask>
<path d="M53 38L53 48C53 54.6274 47.6274 60 41 60L12 60C5.37259 60 2.59526e-06 54.6274 2.88495e-06 48L3.32207e-06 38L53 38Z" fill="#39B53D"/>
<path d="M53 38L53 60L53 38M12 63C3.71573 63 -3 56.2843 -3 48L-3 38L3 38L3 48C3 52.9706 7.02944 57 12 57L12 63ZM12 57M3.32207e-06 38L53 38L3.32207e-06 38M53 48C53 56.2843 46.2843 63 38 63L12 63C3.71573 63 -3 56.2843 -3 48L3 48C3 52.9706 7.02944 57 12 57L41 57C47.6274 57 53 52.9706 53 48Z" fill="#056908" mask="url(#path-5-inside-2_1127_231)"/>
<circle cx="65" cy="38" r="36.5" transform="rotate(90 65 38)" fill="#056908" stroke="#056908" stroke-width="3"/>
<path d="M103 38.0273C102.985 59.0016 85.9777 76 65 76C44.0216 76 27.0147 59.0005 27.0009 38.0254C33.4178 45.939 43.2151 50.9999 54.1972 51L75.8027 51C86.7845 50.9999 96.5831 45.9406 103 38.0273Z" fill="#065208"/>
</svg>
