<svg width="125" height="44" viewBox="0 0 125 44" fill="none" xmlns="http://www.w3.org/2000/svg">
<path d="M47.48 18.288C44.168 18.288 41.756 16.38 41.756 13.5C41.756 10.602 44.042 8.712 47.498 8.712C49.118 8.712 50.27 9 51.71 9.648V12.276C50.54 11.592 49.316 11.16 47.696 11.16C45.788 11.16 44.744 12.114 44.744 13.5C44.744 14.886 45.86 15.84 47.822 15.84C49.478 15.84 50.648 15.426 51.71 14.76V17.334C50.252 17.982 49.262 18.288 47.48 18.288ZM53.5049 18V9H56.8529L56.4929 12.348H56.6729C57.1409 9.756 58.5269 8.712 61.6229 8.712V11.34C58.1129 11.34 56.6009 12.078 56.6009 14.976V18H53.5049ZM63.8784 7.848C62.7084 7.848 62.0424 7.38 62.0424 6.21C62.0424 5.04 62.7084 4.554 63.8784 4.554C65.0484 4.554 65.7504 5.04 65.7504 6.21C65.7504 7.38 65.0844 7.848 63.8784 7.848ZM62.3664 18V9H65.4624V18H62.3664ZM67.3565 18V9H70.7045L70.3445 12.708H70.4885C70.9205 10.044 72.1985 8.712 74.9705 8.712C77.1845 8.748 78.3005 9.63 78.5525 12.708H78.6965C79.1285 10.044 80.4065 8.712 83.1785 8.712C85.7165 8.748 86.8685 9.9 86.8685 14.094V18H83.7725V14.4C83.7725 11.844 83.1065 11.034 81.4865 11.034C79.7945 11.034 78.6605 12.762 78.6605 15.246V18H75.5645V14.4C75.5645 11.844 74.8985 11.034 73.2785 11.034C71.5865 11.034 70.4525 12.762 70.4525 15.246V18H67.3565ZM93.1906 18.288C91.8046 18.288 89.8606 18.018 88.3666 17.586V14.994C89.8786 15.57 91.1206 15.804 92.7046 15.804C94.6486 15.804 95.4946 15.642 95.4946 15.102C95.4946 13.662 87.9706 15.606 87.9706 11.772C87.9706 9.684 90.0946 8.712 93.2626 8.712C94.3426 8.712 96.1966 8.91 97.7626 9.216V11.754C96.4846 11.484 95.0086 11.25 93.6586 11.25C91.7686 11.25 90.9406 11.466 90.9406 11.916C90.9406 13.176 98.4826 11.34 98.4826 15.264C98.4826 17.406 96.3586 18.288 93.1906 18.288ZM105.101 18.288C101.663 18.288 99.3947 16.38 99.3947 13.5C99.3947 10.62 101.663 8.712 105.101 8.712C108.539 8.712 110.807 10.62 110.807 13.5C110.807 16.38 108.539 18.288 105.101 18.288ZM105.101 15.84C106.775 15.84 107.891 14.904 107.891 13.5C107.891 12.096 106.775 11.16 105.101 11.16C103.427 11.16 102.311 12.096 102.311 13.5C102.311 14.904 103.427 15.84 105.101 15.84ZM112.251 18V9H115.599L115.239 12.708H115.383C115.815 10.044 117.093 8.712 119.865 8.712C122.403 8.748 123.555 9.9 123.555 14.094V18H120.459V14.4C120.459 11.862 119.793 11.034 118.173 11.034C116.481 11.034 115.347 12.762 115.347 15.246V18H112.251ZM42.764 40V33.25H41.684V31H42.764V30.64C42.764 28.192 43.322 27.238 45.572 27.238C46.274 27.238 46.868 27.31 47.984 27.526V29.326C47.75 29.326 47.552 29.308 47.372 29.308C45.986 29.308 45.86 29.65 45.86 31H47.984V33.142H45.86V40H42.764ZM49.5177 40V27.4H52.6137V40H49.5177ZM57.4087 40.288C56.0767 40.288 54.0607 40 54.0607 37.912C54.0607 35.59 57.8047 34.96 61.6927 34.69C61.6927 33.718 60.9547 33.304 59.5687 33.304C58.1647 33.304 56.4007 33.736 55.1947 34.258V31.684C56.7067 31.126 58.7047 30.712 60.2887 30.712C63.5647 30.712 64.7887 32.404 64.7887 34.924V40H61.8187L62.2147 36.958H62.0527C61.4767 39.244 60.1627 40.288 57.4087 40.288ZM58.7767 38.164C60.1807 38.164 61.6927 37.498 61.6747 36.04C59.6047 36.184 57.2647 36.364 57.2647 37.354C57.2647 37.876 57.8947 38.164 58.7767 38.164ZM66.6006 40V31H69.9486L69.5886 34.708H69.7326C70.1646 32.044 71.4426 30.712 74.2146 30.712C76.4286 30.748 77.5446 31.63 77.7966 34.708H77.9406C78.3726 32.044 79.6506 30.712 82.4226 30.712C84.9606 30.748 86.1126 31.9 86.1126 36.094V40H83.0166V36.4C83.0166 33.844 82.3506 33.034 80.7306 33.034C79.0386 33.034 77.9046 34.762 77.9046 37.246V40H74.8086V36.4C74.8086 33.844 74.1426 33.034 72.5226 33.034C70.8306 33.034 69.6966 34.762 69.6966 37.246V40H66.6006ZM93.0529 40.288C89.7949 40.288 87.6349 38.38 87.6349 35.5C87.6349 32.62 89.7949 30.712 93.0529 30.712C96.2749 30.712 98.4169 32.35 98.4709 34.798V36.274H90.7129C91.0009 37.408 92.0089 37.93 93.9529 37.93C96.1489 37.93 97.0489 37.372 98.0749 36.94V39.406C96.5089 40 95.4469 40.288 93.0529 40.288ZM90.6409 35.014L95.5009 34.906C95.4289 33.772 94.4209 33.16 93.0529 33.16C91.7929 33.16 90.8029 33.826 90.6409 35.014Z" fill="white"/>
<path d="M18 38.5C20.9837 38.5 23.8452 37.3147 25.955 35.205C28.0647 33.0952 29.25 30.2337 29.25 27.25C29.25 25.951 28.905 24.7045 28.5 23.545C25.9995 26.0155 24.1005 27.25 22.8 27.25C28.7925 16.75 25.5 12.25 16.5 6.25C17.25 13.75 12.306 17.161 10.293 19.0555C8.65099 20.6 7.51085 22.6022 7.02042 24.8025C6.52999 27.0028 6.71189 29.2996 7.54252 31.3953C8.37315 33.491 9.81421 35.2887 11.6789 36.5556C13.5435 37.8224 15.7457 38.4998 18 38.5ZM19.065 11.8525C23.9265 15.9775 23.9505 19.183 20.1945 25.7635C19.053 27.763 20.4975 30.25 22.8 30.25C23.832 30.25 24.876 29.95 25.9785 29.3575C25.6517 30.592 25.0428 31.7337 24.1997 32.6929C23.3567 33.652 22.3025 34.4023 21.1201 34.8848C19.9378 35.3673 18.6596 35.5687 17.3861 35.4731C16.1127 35.3776 14.8789 34.9878 13.7817 34.3344C12.6846 33.6809 11.7541 32.7817 11.0635 31.7075C10.373 30.6334 9.94121 29.4136 9.80223 28.1441C9.66324 26.8747 9.82084 25.5904 10.2626 24.3922C10.7044 23.1941 11.4182 22.1149 12.348 21.2395C12.537 21.0625 13.4955 20.212 13.5375 20.1745C14.1735 19.6045 14.697 19.099 15.2145 18.5455C17.0595 16.5685 18.3855 14.3755 19.0635 11.8525H19.065Z" fill="#AD1C43"/>
</svg>
